# xmcd
#
# Track frame offsets:
#	150
#	12399
#	25434
#	36678
#	49930
#	62554
#	74472
#	86800
#	99247
#	111051
#	123366
#	135446
#	147806
#	159390
#	171404
#	182960
#	195399
#	208366
#	219895
#	231445
#	243544
#
# Disc length: 3395 seconds
#
# Revision: 0
# Processed by: cddbd v1.5.2PL0 Copyright (c) Steve Scherf et al.
# Submitted via: EasyCDDAExtractor 16.0.6.1
#
DISCID=3a0d4115
DTITLE=Μητροπάνος Δημήτρης - Είκοσι τέσσερα ζεϊμπέκικα-Δ. Μητροπάνος
DYEAR=1994
DGENRE=Λαϊκή
TTITLE0=Κυρά Ζωή
TTITLE1=Τώρα που τραγουδώ
TTITLE2=Ο μοναχογιός του πόνου
TTITLE3=Εμένα δε μ' αγάπησε κανείς
TTITLE4=Οι ξενύχτες
TTITLE5=Χαμένη πολιτεία
TTITLE6=Γυρίζω απ' τη νύχτα
TTITLE7=Σε μιά στίβα καλαμιές
TTITLE8=Όπου πάει να ξημερώσει
TTITLE9=Δώσε μου φωτιά
TTITLE10=Κλαίει απόψε η γειτονιά
TTITLE11=Σκουριασμένο το κλειδί
TTITLE12=Όλα εδώ γραμμένα
TTITLE13=Θα 'ρθώ τα μεσάνυχτα
TTITLE14=Κράτα με ένα μεσημέρι
TTITLE15=Στη μνήμη ενός παλιού ρεμπέτη
TTITLE16=Μιά ζωή μέσα στους δρόμους
TTITLE17=Εγώ είμ' ένα παλιόπαιδο
TTITLE18=Έτσι τον είδα τον αητό
TTITLE19=Της ζωής το μαγαζί
TTITLE20=Πέρασε το καλοκαίρι
EXTD=
EXTT0=
EXTT1=
EXTT2=
EXTT3=
EXTT4=
EXTT5=
EXTT6=
EXTT7=
EXTT8=
EXTT9=
EXTT10=
EXTT11=
EXTT12=
EXTT13=
EXTT14=
EXTT15=
EXTT16=
EXTT17=
EXTT18=
EXTT19=
EXTT20=
PLAYORDER=
